<svg xmlns="http://www.w3.org/2000/svg" xmlns:xlink="http://www.w3.org/1999/xlink" version="1.1" x="0px" y="0px" viewBox="0 0 64.311 35.33" enable-background="new 0 0 64.311 35.33" xml:space="preserve" width="64.311px" height="35.33px">  <g id="Guide"/>  <g id="Artwork">    <g>      <rect x="50.44" y="0.291" fill="#FFFFFF" width="13.617" height="34.748"/>      <polygon fill="#FBBA00" points="15.944,0.506 50.557,0.506 50.557,34.824 15.944,34.824 0.167,17.664   "/>      <path d="M63.804,35.33H16.285c-0.141,0-0.276-0.06-0.372-0.163L0.134,18.007c-0.179-0.194-0.179-0.488,0-0.684l15.778-17.16    C16.007,0.059,16.143,0,16.285,0h47.519c0.279,0,0.507,0.227,0.507,0.506v34.317C64.311,35.103,64.083,35.33,63.804,35.33z     M16.285,0.506c0,0-0.001,0-0.001,0L0.507,17.664l15.778,17.16h47.519l0.001-34.318L16.285,0.506z"/>      <path fill="#FFFFFF" d="M37.436,25.034c0,0.253-0.01,0.466-0.03,0.636c-0.02,0.171-0.051,0.309-0.091,0.414    c-0.04,0.105-0.091,0.182-0.151,0.229c-0.061,0.048-0.127,0.072-0.2,0.072h-7.88c-0.267,0-0.491-0.085-0.673-0.256    c-0.182-0.17-0.273-0.448-0.273-0.832V10.504c0-0.385,0.091-0.663,0.273-0.833c0.182-0.171,0.406-0.256,0.673-0.256h7.831    c0.073,0,0.137,0.022,0.194,0.066c0.056,0.044,0.105,0.12,0.145,0.229c0.04,0.109,0.071,0.249,0.091,0.42    c0.02,0.17,0.03,0.386,0.03,0.649c0,0.245-0.01,0.452-0.03,0.623c-0.02,0.17-0.05,0.308-0.091,0.413    c-0.041,0.105-0.089,0.182-0.145,0.229c-0.057,0.048-0.121,0.072-0.194,0.072h-5.601v4.144h4.74c0.073,0,0.139,0.025,0.2,0.073    c0.061,0.048,0.111,0.122,0.152,0.223c0.04,0.1,0.071,0.236,0.091,0.406c0.02,0.17,0.031,0.378,0.031,0.623    c0,0.254-0.01,0.464-0.031,0.63c-0.02,0.166-0.05,0.3-0.091,0.4c-0.04,0.101-0.091,0.173-0.152,0.216    c-0.06,0.044-0.127,0.066-0.2,0.066h-4.74v4.787h5.649c0.073,0,0.139,0.024,0.2,0.072c0.06,0.048,0.111,0.125,0.151,0.229    c0.04,0.105,0.071,0.243,0.091,0.414C37.426,24.568,37.436,24.781,37.436,25.034z"/>      <path fill="#12100B" d="M36.965,26.545h-7.88c-0.309,0-0.573-0.101-0.784-0.299c-0.215-0.201-0.324-0.52-0.324-0.95V10.503    c0-0.43,0.109-0.749,0.325-0.951c0.211-0.197,0.475-0.298,0.783-0.298h7.831c0.109,0,0.208,0.033,0.293,0.099    c0.079,0.06,0.144,0.158,0.198,0.3c0.045,0.125,0.078,0.274,0.1,0.458c0.021,0.187,0.032,0.412,0.032,0.668    c0,0.238-0.011,0.454-0.032,0.642c-0.022,0.185-0.055,0.334-0.1,0.453c-0.053,0.132-0.115,0.227-0.191,0.294    c-0.087,0.074-0.187,0.11-0.3,0.11h-5.439V16.1h4.578c0.11,0,0.212,0.036,0.301,0.107c0.082,0.064,0.15,0.162,0.201,0.289    c0.045,0.113,0.078,0.259,0.101,0.446c0.021,0.178,0.03,0.394,0.03,0.644c0,0.262-0.01,0.474-0.03,0.648    c-0.024,0.187-0.058,0.33-0.102,0.44c-0.052,0.131-0.122,0.227-0.209,0.288c-0.086,0.062-0.184,0.095-0.292,0.095h-4.578v4.466    h5.488c0.108,0,0.212,0.036,0.299,0.105c0.082,0.064,0.148,0.161,0.202,0.298c0.047,0.122,0.08,0.274,0.1,0.453l0,0    c0.021,0.182,0.031,0.402,0.031,0.655c0,0.252-0.011,0.473-0.031,0.654c-0.02,0.181-0.055,0.332-0.1,0.452    c-0.053,0.137-0.119,0.234-0.203,0.299C37.178,26.508,37.074,26.545,36.965,26.545z M29.084,9.577    c-0.227,0-0.411,0.069-0.562,0.212c-0.147,0.138-0.222,0.378-0.222,0.715v14.793c0,0.337,0.075,0.577,0.222,0.715    c0.151,0.142,0.334,0.212,0.562,0.212h7.88c0.037,0,0.067-0.012,0.098-0.036c0.038-0.029,0.072-0.083,0.103-0.162    c0.035-0.093,0.063-0.222,0.081-0.373c0.02-0.17,0.029-0.377,0.029-0.617s-0.01-0.448-0.029-0.618l0,0    c-0.017-0.152-0.045-0.278-0.082-0.374c-0.03-0.078-0.063-0.132-0.099-0.16c-0.032-0.024-0.065-0.037-0.101-0.037h-5.812v-5.11    h4.902c0.039,0,0.071-0.011,0.104-0.035c0.026-0.017,0.061-0.057,0.097-0.145c0.034-0.084,0.061-0.205,0.082-0.359    c0.019-0.158,0.028-0.364,0.028-0.609c0-0.238-0.01-0.441-0.028-0.604c-0.019-0.156-0.047-0.28-0.082-0.366    c-0.028-0.073-0.062-0.125-0.101-0.155c-0.034-0.027-0.063-0.038-0.101-0.038h-4.902v-4.467h5.762c0.035,0,0.063-0.011,0.09-0.033    c0.023-0.02,0.061-0.066,0.1-0.165c0.035-0.092,0.062-0.218,0.081-0.375c0.02-0.174,0.03-0.378,0.03-0.603    c0-0.244-0.011-0.456-0.03-0.63c-0.019-0.156-0.047-0.286-0.082-0.385c-0.041-0.108-0.078-0.144-0.092-0.154    c-0.029-0.023-0.059-0.033-0.097-0.033H29.084z"/>      <path d="M61.263,10.68c0.053,0.159,0.086,0.285,0.099,0.379c0.013,0.093-0.005,0.162-0.053,0.209    c-0.049,0.046-0.135,0.075-0.259,0.086c-0.124,0.011-0.295,0.017-0.512,0.017c-0.226,0-0.402-0.004-0.528-0.01    c-0.126-0.007-0.222-0.02-0.289-0.04c-0.066-0.02-0.113-0.047-0.139-0.083c-0.027-0.035-0.049-0.082-0.066-0.14l-0.578-1.727    h-3.227l-0.545,1.68c-0.018,0.062-0.041,0.114-0.069,0.156c-0.029,0.042-0.075,0.076-0.14,0.099    c-0.064,0.025-0.155,0.041-0.272,0.05c-0.117,0.009-0.271,0.014-0.461,0.014c-0.204,0-0.363-0.007-0.478-0.02    c-0.115-0.013-0.195-0.045-0.239-0.096c-0.044-0.051-0.06-0.123-0.046-0.216c0.013-0.093,0.046-0.217,0.1-0.371l2.649-7.626    c0.026-0.075,0.057-0.136,0.093-0.183c0.035-0.047,0.092-0.082,0.169-0.106c0.077-0.025,0.185-0.04,0.322-0.047    c0.137-0.007,0.318-0.01,0.544-0.01c0.261,0,0.469,0.004,0.624,0.01c0.155,0.007,0.276,0.022,0.362,0.047    c0.086,0.024,0.148,0.06,0.186,0.11c0.037,0.049,0.07,0.115,0.096,0.199L61.263,10.68z M57.318,4.376h-0.007l-1.215,3.653h2.437    L57.318,4.376z"/>      <path d="M57.416,22.096c-0.376,0-0.681-0.305-0.681-0.681v-7.319c0-0.376,0.305-0.681,0.681-0.681    c0.376,0,0.681,0.305,0.681,0.681v7.319C58.096,21.792,57.791,22.096,57.416,22.096z"/>      <path d="M59.355,16.684c-0.174,0-0.349-0.066-0.481-0.199l-1.458-1.459l-1.459,1.459c-0.266,0.266-0.697,0.266-0.963,0    c-0.266-0.267-0.266-0.697,0-0.963l1.94-1.939c0.266-0.266,0.697-0.266,0.963,0l1.939,1.939c0.266,0.266,0.266,0.697,0,0.963    C59.703,16.617,59.529,16.684,59.355,16.684z"/>      <path fill="#12100B" d="M60.763,25.356c0,0.127-0.005,0.236-0.015,0.328c-0.01,0.092-0.024,0.165-0.042,0.22    c-0.018,0.054-0.04,0.093-0.067,0.114c-0.026,0.022-0.057,0.033-0.094,0.033c-0.053,0-0.137-0.039-0.255-0.118    c-0.117-0.078-0.273-0.164-0.467-0.256c-0.194-0.092-0.425-0.177-0.694-0.255c-0.269-0.079-0.581-0.118-0.936-0.118    c-0.38,0-0.723,0.071-1.03,0.213c-0.307,0.142-0.57,0.343-0.788,0.603c-0.218,0.26-0.386,0.572-0.503,0.937    c-0.117,0.366-0.176,0.768-0.176,1.21c0,0.485,0.06,0.913,0.179,1.282c0.119,0.37,0.286,0.679,0.5,0.928    c0.214,0.249,0.472,0.437,0.773,0.564c0.301,0.127,0.633,0.191,0.997,0.191c0.178,0,0.354-0.022,0.527-0.066    c0.174-0.044,0.335-0.109,0.485-0.197v-1.967h-1.485c-0.073,0-0.129-0.049-0.17-0.147c-0.04-0.098-0.061-0.265-0.061-0.502    c0-0.122,0.005-0.225,0.015-0.308c0.01-0.083,0.025-0.15,0.046-0.2c0.02-0.05,0.044-0.087,0.073-0.111    c0.028-0.024,0.06-0.036,0.097-0.036h2.649c0.065,0,0.122,0.012,0.173,0.036c0.05,0.025,0.095,0.061,0.133,0.108    c0.038,0.048,0.067,0.106,0.088,0.174c0.02,0.068,0.03,0.145,0.03,0.232v3.377c0,0.131-0.021,0.246-0.063,0.344    c-0.043,0.099-0.129,0.176-0.261,0.233c-0.131,0.057-0.294,0.116-0.488,0.177c-0.194,0.062-0.395,0.114-0.603,0.158    c-0.208,0.044-0.418,0.076-0.63,0.098c-0.212,0.022-0.425,0.033-0.639,0.033c-0.626,0-1.187-0.098-1.682-0.292    c-0.495-0.195-0.914-0.476-1.258-0.846c-0.344-0.369-0.606-0.819-0.788-1.351c-0.182-0.531-0.273-1.133-0.273-1.806    c0-0.695,0.097-1.319,0.291-1.872c0.194-0.553,0.469-1.022,0.824-1.41c0.355-0.387,0.785-0.683,1.288-0.889    c0.503-0.205,1.064-0.308,1.682-0.308c0.34,0,0.649,0.025,0.927,0.076c0.279,0.05,0.522,0.111,0.731,0.183    c0.208,0.072,0.381,0.15,0.518,0.233c0.137,0.083,0.233,0.155,0.288,0.216c0.054,0.061,0.094,0.147,0.118,0.259    C60.751,24.973,60.763,25.138,60.763,25.356z"/>    </g>    <g/>  </g></svg>