<svg width="34" height="24" viewBox="0 0 34 24" fill="none" xmlns="http://www.w3.org/2000/svg">
  <path fill="#fff" d="M0 0h34v24H0z"/>
  <path d="M3 20.624V16.58h1.248c.907 0 1.49.34 1.49 1.045 0 .4-.184.676-.444.838.375.174.595.509.595.965 0 .815-.595 1.196-1.52 1.196H3zm.803-2.363h.595c.364 0 .52-.18.52-.508 0-.353-.283-.468-.664-.468h-.45v.976zm0 1.658H4.3c.485 0 .768-.121.768-.503 0-.375-.242-.531-.699-.531h-.566v1.034zm3.643.774c-.791 0-1.19-.387-1.19-.907 0-.572.468-.907 1.162-.913.172.003.344.019.514.047v-.139c0-.352-.202-.52-.59-.52a2.03 2.03 0 00-.762.139l-.145-.624c.249-.104.647-.174 1-.174.85 0 1.271.451 1.271 1.231v1.606c-.237.122-.682.254-1.26.254zm.486-.652v-.619a1.932 1.932 0 00-.41-.046c-.266 0-.474.104-.474.376 0 .242.173.37.48.37a.903.903 0 00.404-.081zm1.335.583v-2.767a3.526 3.526 0 011.306-.255c.844 0 1.33.416 1.33 1.185v1.837h-.798v-1.78c0-.398-.185-.583-.538-.583a1.212 1.212 0 00-.508.104v2.26h-.792zm5.421-2.848l-.15.63a1.761 1.761 0 00-.653-.145c-.468 0-.722.33-.722.872 0 .596.266.902.763.902a1.63 1.63 0 00.641-.15l.127.64a1.945 1.945 0 01-.832.168c-.959 0-1.514-.595-1.514-1.537 0-.935.55-1.554 1.468-1.554.3-.001.596.058.872.174zm1.723 2.917c-.89 0-1.444-.618-1.444-1.548 0-.924.554-1.543 1.444-1.543.896 0 1.439.619 1.439 1.543 0 .93-.543 1.548-1.439 1.548zm0-.658c.41 0 .624-.341.624-.89 0-.543-.214-.884-.624-.884-.404 0-.63.34-.63.884 0 .549.226.89.63.89zm1.9.59v-2.768a3.526 3.526 0 011.306-.255c.843 0 1.329.416 1.329 1.185v1.837h-.798v-1.78c0-.398-.184-.583-.537-.583a1.212 1.212 0 00-.508.104v2.26h-.792zm4.433.068c-.688 0-1.04-.375-1.04-1.138v-1.248h-.393v-.635h.393v-.642l.797-.04v.682h.642v.635H22.5v1.237c0 .335.14.49.4.49.102 0 .205-.011.305-.034l.04.641a2.201 2.201 0 01-.502.052zm2.013 0c-.792 0-1.19-.387-1.19-.907 0-.572.467-.907 1.16-.913.173.003.345.019.515.047v-.139c0-.352-.202-.52-.59-.52a2.03 2.03 0 00-.762.139l-.145-.624c.249-.104.648-.174 1-.174.85 0 1.271.451 1.271 1.231v1.606c-.237.122-.682.254-1.26.254zm.485-.652v-.619a1.934 1.934 0 00-.41-.046c-.266 0-.474.104-.474.376 0 .242.173.37.48.37a.903.903 0 00.404-.081zm3.502-2.265l-.15.63a1.761 1.761 0 00-.653-.145c-.468 0-.722.33-.722.872 0 .596.266.902.762.902a1.64 1.64 0 00.642-.15l.127.64a1.945 1.945 0 01-.832.168c-.96 0-1.514-.595-1.514-1.537 0-.935.55-1.554 1.468-1.554.3-.001.596.058.872.174zm1.753 2.917c-.687 0-1.04-.375-1.04-1.138v-1.248h-.393v-.635h.393v-.642l.798-.04v.682h.64v.635h-.64v1.237c0 .335.138.49.398.49.103 0 .206-.011.306-.034l.04.641a2.201 2.201 0 01-.502.052z" fill="#1E3764"/>
  <path d="M8.562 14.557c4.219 0 6.328-2.813 8.438-5.625H3v5.625h5.562z" fill="url(#Bancontact__paint0_linear)"/>
  <path d="M25.438 3.306C21.22 3.306 19.11 6.12 17 8.932h14V3.306h-5.562z" fill="url(#Bancontact__paint1_linear)"/>
  <defs>
    <linearGradient id="Bancontact__paint0_linear" x1="5.832" y1="12.004" x2="16.073" y2="8.2" gradientUnits="userSpaceOnUse">
      <stop stop-color="#005AB9"/>
      <stop offset="1" stop-color="#1E3764"/>
    </linearGradient>
    <linearGradient id="Bancontact__paint1_linear" x1="17.848" y1="9.42" x2="28.722" y2="5.71" gradientUnits="userSpaceOnUse">
      <stop stop-color="#FBA900"/>
      <stop offset="1" stop-color="#FFD800"/>
    </linearGradient>
  </defs>
</svg>
