<svg width="34" height="24" viewBox="0 0 34 24" fill="none" xmlns="http://www.w3.org/2000/svg">
  <path fill="#fff" d="M0 0h34v24H0z"/>
  <path d="M23.553 4.553H10.447C6.35 4.553 3 7.904 3 12s3.351 7.447 7.447 7.447h13.106C27.65 19.447 31 16.096 31 12s-3.351-7.447-7.447-7.447z" fill="#fff"/>
  <path d="M23.553 5.156c.92 0 1.813.183 2.655.54a6.904 6.904 0 013.649 3.65c.357.84.54 1.734.54 2.654 0 .92-.183 1.813-.54 2.655a6.905 6.905 0 01-3.649 3.649 6.756 6.756 0 01-2.655.54H10.447c-.92 0-1.813-.183-2.655-.54a6.903 6.903 0 01-3.649-3.65A6.755 6.755 0 013.603 12c0-.92.183-1.813.54-2.655a6.903 6.903 0 013.649-3.649 6.755 6.755 0 012.655-.54h13.106zm0-.603H10.447C6.35 4.553 3 7.904 3 12s3.351 7.447 7.447 7.447h13.106C27.65 19.447 31 16.096 31 12s-3.351-7.447-7.447-7.447z" fill="#3C4043"/>
  <path d="M16.352 12.529v2.252h-.714V9.22h1.895c.48 0 .89.16 1.225.48.342.32.514.711.514 1.173 0 .473-.172.864-.514 1.18-.332.316-.741.473-1.225.473h-1.18v.004zm0-2.625v1.94h1.196a.954.954 0 00.707-.287c.19-.19.287-.42.287-.682a.927.927 0 00-.287-.674.927.927 0 00-.707-.294h-1.195v-.003zm4.788.946c.53 0 .946.14 1.252.424.305.283.457.67.457 1.162v2.345h-.68v-.528h-.03c-.295.435-.69.651-1.18.651-.422 0-.772-.123-1.055-.372a1.189 1.189 0 01-.424-.931c0-.395.149-.708.447-.938.297-.235.696-.35 1.191-.35.425 0 .775.078 1.046.234v-.164a.811.811 0 00-.294-.633 1.01 1.01 0 00-.692-.26c-.399 0-.715.167-.946.506l-.63-.395c.347-.502.86-.752 1.538-.752zm-.923 2.762c0 .186.078.343.238.466a.875.875 0 00.555.186c.302 0 .57-.112.804-.335.235-.224.354-.484.354-.786-.223-.175-.532-.264-.93-.264-.291 0-.533.07-.727.208-.197.145-.294.32-.294.525zm6.52-2.64l-2.383 5.481h-.737l.886-1.917-1.571-3.564h.778l1.132 2.733h.015l1.102-2.733h.778z" fill="#3C4043"/>
  <path d="M13.509 12.074c0-.233-.021-.456-.06-.67h-2.996v1.229h1.725a1.48 1.48 0 01-.64.99v.797h1.027c.6-.555.944-1.376.944-2.346z" fill="#4285F4"/>
  <path d="M11.538 13.623c-.286.193-.654.305-1.085.305-.832 0-1.538-.56-1.79-1.316h-1.06v.822a3.19 3.19 0 002.85 1.757c.862 0 1.586-.284 2.113-.772l-1.028-.796z" fill="#34A853"/>
  <path d="M8.563 12.002c0-.213.035-.418.1-.61v-.823h-1.06c-.217.431-.34.917-.34 1.433 0 .515.123 1.001.34 1.432l1.06-.822a1.924 1.924 0 01-.1-.61z" fill="#FABB05"/>
  <path d="M10.453 10.075c.47 0 .892.162 1.224.478l.91-.91a3.065 3.065 0 00-2.134-.83 3.19 3.19 0 00-2.85 1.756l1.06.823c.252-.756.958-1.317 1.79-1.317z" fill="#E94235"/>
</svg>
