<svg width="34" height="24" viewBox="0 0 34 24" fill="none" xmlns="http://www.w3.org/2000/svg">
  <path fill="#007CC1" d="M0 0h34v24H0z"/>
  <path fill-rule="evenodd" clip-rule="evenodd" d="M14.757 6.316l.316 1.03h.988L14.527 3h-1.121l-1.528 4.346h.988l.315-1.03h1.576zm-.533-1.776l.315 1.006h-1.127l.309-1.006a3.1 3.1 0 00.066-.225c.033-.109.065-.222.097-.34.037-.12.065-.221.085-.302.02.08.047.176.08.285l.096.321c.033.105.059.192.079.26z" fill="#fff"/>
  <path d="M3 3.018v4.328h.915V3.018H3zm4.443 4.328h1.043L6.965 4.934l1.509-1.916H7.456l-1.17 1.473-.364.51V3.017h-.915v4.328h.915V5.8l.388-.278 1.133 1.824zm4.08 0H9.032V3.018h2.491v.752H9.947v.951h1.467v.752H9.947v1.115h1.576v.758zm5.144 1.69a.608.608 0 00-.345-.097.62.62 0 00-.352.097c-.093.06-.14.175-.14.345 0 .166.047.28.14.346a.62.62 0 00.352.097.608.608 0 00.345-.097c.097-.065.146-.18.146-.346 0-.17-.049-.285-.146-.345zm.103 4.509v-3.31h-.903v3.31h.903zm-13.77 0h.903v-1.71H5.37v-.75H3.903V9.968H5.48v-.752H3v4.328z" fill="#fff"/>
  <path fill-rule="evenodd" clip-rule="evenodd" d="M8.63 10.46c-.234-.194-.574-.291-1.018-.291-.235 0-.46.026-.68.079-.213.052-.41.125-.587.218l.297.612c.153-.069.307-.125.46-.17a1.56 1.56 0 01.473-.072c.162 0 .287.04.376.121.093.08.14.208.14.382v.145l-.576.018c-.493.017-.863.11-1.11.28-.246.165-.37.424-.37.775 0 .356.098.62.292.794.194.17.438.255.733.255.275 0 .491-.04.649-.121.157-.081.307-.21.448-.388h.025l.175.448h.63V11.34c0-.396-.119-.69-.357-.879zm-.891 1.564l.352-.012v.272c0 .21-.067.374-.2.491a.733.733 0 01-.491.17.538.538 0 01-.316-.085c-.08-.06-.12-.16-.12-.297a.48.48 0 01.169-.382c.113-.097.315-.15.606-.157z" fill="#fff"/>
  <path d="M13.798 10.175c.375 0 .658.097.848.291.194.19.291.497.291.921v2.158h-.903v-1.933c0-.477-.166-.716-.497-.716-.239 0-.408.085-.51.255-.1.17-.15.414-.15.733v1.661h-.904v-1.933c0-.477-.166-.716-.497-.716-.25 0-.424.095-.521.285-.093.186-.14.455-.14.807v1.557h-.903v-3.31h.691l.121.425h.049a.89.89 0 01.412-.37 1.38 1.38 0 01.552-.115c.242 0 .448.04.618.121.17.077.299.198.388.364h.079a.885.885 0 01.418-.37c.182-.076.368-.115.558-.115zm4.819 3.37h-.903V8.94h.903v4.606zm1.459-3.309h-.988l1.315 3.285-.054.164a1.019 1.019 0 01-.249.412.583.583 0 01-.448.176c-.069 0-.136-.004-.2-.012a3.45 3.45 0 01-.158-.025v.715c.057.013.121.023.194.03.077.013.166.019.267.019.315 0 .592-.087.83-.26.243-.17.427-.427.552-.77l1.4-3.734h-.97l-.612 1.86a4.55 4.55 0 00-.079.28 3.03 3.03 0 00-.048.296h-.018a3.133 3.133 0 00-.037-.297 1.565 1.565 0 00-.073-.278l-.624-1.861z" fill="#fff"/>
  <path d="M0 19h34v5H0v-5z" fill="#FFDB00"/>
</svg>
