<svg width="34" height="24" viewBox="0 0 34 24" fill="none" xmlns="http://www.w3.org/2000/svg">
  <path fill="#fff" d="M0 0h34v24H0z"/>
  <path d="M12.425 20.936v-1.193a.705.705 0 00-.747-.754.735.735 0 00-.668.338.7.7 0 00-.628-.338.628.628 0 00-.558.282v-.235h-.413v1.9h.417v-1.052a.444.444 0 01.466-.505c.274 0 .414.179.414.5v1.057h.418v-1.052a.448.448 0 01.465-.505c.283 0 .418.179.418.5v1.057h.416zm2.327-.949v-.949h-.418v.231a.72.72 0 00-.596-.278.995.995 0 100 1.989.72.72 0 00.596-.279v.231h.414l.004-.945zm-1.538 0a.575.575 0 11.577.61.57.57 0 01-.58-.61h.003zm10.379-.994c.136 0 .271.025.398.075a.963.963 0 01.54.527 1.06 1.06 0 01-.001.796.963.963 0 01-.54.527 1.126 1.126 0 01-.815 0 .983.983 0 01-.535-.527 1.057 1.057 0 010-.796.969.969 0 01.535-.527 1.07 1.07 0 01.414-.081l.004.006zm0 .398a.616.616 0 00-.237.043.559.559 0 00-.314.325.691.691 0 000 .493.558.558 0 00.314.324.647.647 0 00.67-.125.578.578 0 00.126-.2.69.69 0 000-.492.577.577 0 00-.125-.2.568.568 0 00-.2-.125.616.616 0 00-.238-.055l.004.011zM17 19.986c0-.596-.37-.994-.901-.994a.995.995 0 00.028 1.989c.283.01.56-.085.778-.267l-.2-.306a.905.905 0 01-.552.199.527.527 0 01-.57-.466h1.411c.006-.05.006-.099.006-.155zm-1.414-.167a.49.49 0 01.499-.46.47.47 0 01.482.462l-.981-.002zm3.155-.298a1.223 1.223 0 00-.597-.163c-.227 0-.362.083-.362.222 0 .14.143.164.322.188l.2.027c.413.06.664.235.664.57 0 .334-.319.62-.866.62a1.37 1.37 0 01-.821-.247l.199-.322c.182.135.405.205.632.199.283 0 .434-.084.434-.23 0-.108-.107-.168-.334-.2l-.2-.028c-.425-.06-.656-.25-.656-.56 0-.379.31-.61.796-.61.272-.008.54.06.774.2l-.185.334zm1.99-.108h-.675v.858c0 .199.067.318.274.318a.764.764 0 00.367-.107l.119.354a.97.97 0 01-.517.147c-.49 0-.66-.263-.66-.704v-.866h-.387v-.378h.386v-.577h.418v.577h.674v.378zm1.43-.425c.1 0 .2.017.294.051l-.127.398a.672.672 0 00-.259-.047c-.27 0-.398.175-.398.489v1.064h-.413v-1.9h.41v.231a.56.56 0 01.5-.278l-.007-.008zm2.86 1.67a.2.2 0 01.138.054.185.185 0 01-.062.306.187.187 0 01-.076.017.199.199 0 01-.179-.116.188.188 0 010-.147.2.2 0 01.042-.06.199.199 0 01.127-.053h.01zm0 .337a.14.14 0 00.104-.044.147.147 0 00-.104-.25.15.15 0 00-.105.043.147.147 0 000 .2.144.144 0 00.105.043v.008zm.012-.237a.08.08 0 01.052.016.05.05 0 01.018.042.05.05 0 01-.014.036.07.07 0 01-.042.018l.058.065h-.046l-.053-.065h-.018v.065h-.038v-.183l.083.006zm-.043.034v.048h.043a.042.042 0 00.024 0 .02.02 0 000-.018.02.02 0 000-.018.04.04 0 00-.024 0l-.043-.012z" fill="#000"/>
  <path d="M20.134 4.542h-6.267v11.262h6.267V4.542z" fill="#7673C0"/>
  <path d="M14.265 10.174A7.15 7.15 0 0117 4.542a7.161 7.161 0 100 11.262 7.15 7.15 0 01-2.735-5.63z" fill="#EB001B"/>
  <path d="M27.904 14.61v-.223h.093v-.048h-.236v.048h.093v.231l.05-.008zm.46 0v-.278h-.072l-.084.198-.083-.198h-.074v.278h.052v-.209l.077.181h.054l.078-.18v.21l.051-.002zm.223-4.436A7.161 7.161 0 0117 15.804a7.161 7.161 0 000-11.262 7.162 7.162 0 0111.588 5.63l-.002.002z" fill="#00A1DF"/>
</svg>
