<svg width="73" height="32" viewBox="0 0 73 32" fill="none" xmlns="http://www.w3.org/2000/svg">
  <g clip-path="url(#MasterCard_ID_Check__clip0)">
    <path d="M15.927 11.49h-4.561v8.405h4.561V11.49z" fill="#FF5F00"/>
    <path d="M11.655 15.692c0-.81.178-1.609.523-2.337a5.313 5.313 0 011.468-1.866 5.142 5.142 0 00-2.665-1.113 5.098 5.098 0 00-2.835.508 5.26 5.26 0 00-2.14 1.972 5.447 5.447 0 00-.794 2.836c0 1.003.275 1.986.794 2.836a5.26 5.26 0 002.14 1.972c.88.439 1.862.614 2.835.507a5.142 5.142 0 002.665-1.112 5.313 5.313 0 01-1.468-1.866 5.45 5.45 0 01-.523-2.337z" fill="#EB001B"/>
    <path d="M22.08 15.692a5.446 5.446 0 01-.795 2.836 5.26 5.26 0 01-2.14 1.972 5.099 5.099 0 01-2.834.507 5.141 5.141 0 01-2.665-1.112 5.324 5.324 0 001.467-1.867 5.46 5.46 0 000-4.672 5.324 5.324 0 00-1.467-1.867 5.141 5.141 0 012.665-1.113 5.099 5.099 0 012.834.508 5.26 5.26 0 012.14 1.972c.52.85.794 1.833.794 2.836zm-.498 3.313v-.173h.068v-.035h-.173v.035h.068v.172h.037zm.335 0v-.208h-.053l-.061.143-.06-.143h-.054v.207h.038v-.156l.057.135h.038l.057-.135v.157h.038z" fill="#F79E1B"/>
    <path d="M27.39 21.069h-.194V10.245h.193V21.07zm5.341-2.063h-.541v-6.375h.541v6.375zm3.952-6.375c.475-.007.948.068 1.399.223a2.96 2.96 0 011.057.638c.292.28.521.622.67 1.004a3.835 3.835 0 010 2.646 2.799 2.799 0 01-.67 1.004 2.958 2.958 0 01-1.057.637 4.12 4.12 0 01-1.399.223h-2.269v-6.375h2.27zm-1.727.528v5.32h1.727a3.53 3.53 0 001.2-.19c.324-.113.622-.295.874-.535.239-.234.422-.52.537-.838a3.4 3.4 0 000-2.195 2.256 2.256 0 00-.537-.84 2.377 2.377 0 00-.875-.535 3.537 3.537 0 00-1.199-.187h-1.727zm11.385-.601c.26 0 .52.03.773.091.242.058.477.146.699.262.213.11.412.25.59.412.175.16.327.343.451.546l-.453.31a2.228 2.228 0 00-.38-.45 2.383 2.383 0 00-1.052-.559 2.615 2.615 0 00-.628-.075 2.695 2.695 0 00-1.032.196 2.449 2.449 0 00-.83.556c-.24.246-.429.538-.556.86a3.157 3.157 0 000 2.223 2.6 2.6 0 00.555.86c.237.242.52.43.83.556.33.133.68.2 1.033.196.21 0 .42-.024.626-.073a2.374 2.374 0 001.05-.556c.146-.133.274-.286.38-.455l.444.332c-.13.2-.284.38-.46.538-.178.16-.375.295-.586.405-.219.114-.45.2-.69.257a3.39 3.39 0 01-2.027-.152 3.037 3.037 0 01-1.01-.672 3.088 3.088 0 01-.669-1.03 3.708 3.708 0 010-2.633 3.09 3.09 0 01.668-1.032c.29-.29.634-.519 1.01-.672a3.285 3.285 0 011.264-.241zm4.178 2.905a1.57 1.57 0 01.653-.617c.13-.065.267-.114.408-.145a2.04 2.04 0 011.141.073 1.51 1.51 0 01.917.888c.088.228.13.472.127.717v2.627h-.506v-2.468a1.796 1.796 0 00-.089-.583 1.172 1.172 0 00-.262-.44 1.149 1.149 0 00-.422-.275 1.575 1.575 0 00-.568-.095 1.458 1.458 0 00-.548.102 1.31 1.31 0 00-.444.292 1.375 1.375 0 00-.298.45 1.486 1.486 0 00-.109.576v2.441h-.506V12.45h.506v3.014zm6.257-.81a1.84 1.84 0 011.392.613c.178.201.318.436.41.691a2.56 2.56 0 01.147 1.096h-3.503c.013.23.068.455.162.665.085.186.205.354.353.494.145.135.315.24.5.307.192.07.396.106.6.105.271.005.54-.051.787-.164a2.2 2.2 0 00.626-.447l.27.356a2.49 2.49 0 01-.405.341 2.157 2.157 0 01-.422.219 2.033 2.033 0 01-.438.114 3.145 3.145 0 01-.448.032 2.163 2.163 0 01-.844-.162 1.957 1.957 0 01-.666-.453c-.19-.2-.338-.437-.435-.697a2.488 2.488 0 01-.156-.897c-.003-.304.05-.607.158-.89.099-.261.247-.5.435-.702a1.98 1.98 0 01.657-.457c.26-.11.539-.167.82-.164zm-.01.46a1.46 1.46 0 00-1.048.421 1.606 1.606 0 00-.325.471c-.087.19-.142.393-.162.601h2.988a1.889 1.889 0 00-.147-.608 1.531 1.531 0 00-.313-.47 1.362 1.362 0 00-.992-.414v-.001zm4.88-.46c.297-.003.59.055.864.17.26.11.491.28.678.495l-.33.35a1.816 1.816 0 00-.547-.39 1.612 1.612 0 00-.678-.138 1.565 1.565 0 00-1.15.49 1.65 1.65 0 00-.34.546 2.012 2.012 0 000 1.38c.076.201.19.385.337.54a1.566 1.566 0 001.154.491c.236.003.47-.047.685-.145.206-.095.393-.226.553-.387l.316.355c-.188.214-.42.383-.68.494a2.278 2.278 0 01-1.725.002 2.014 2.014 0 01-.676-.463 2.073 2.073 0 01-.443-.7 2.522 2.522 0 010-1.756c.1-.262.25-.501.442-.701.192-.201.423-.359.677-.465a2.17 2.17 0 01.864-.168zm3.064 1.876h.68l1.758-1.808h.64l-1.99 2.022 2.025 2.263h-.644l-1.79-2.008h-.679v2.008h-.506V12.45h.506v4.08z" fill="#000"/>
  </g>
  <defs>
    <clipPath id="MasterCard_ID_Check__clip0">
      <path fill="#fff" d="M0 0h73v32H0z"/>
    </clipPath>
  </defs>
</svg>
