<svg width="32" height="32" viewBox="0 0 32 32" fill="none" xmlns="http://www.w3.org/2000/svg">
<path d="M29 3H3V29H29V3Z" fill="white"/>
<path d="M28.2818 15.7598H3.71973V28.2805H28.2818V15.7598Z" fill="#1434CB"/>
<path d="M13.358 6.63484L10.9103 12.473H9.31353L8.10939 7.81403C8.03585 7.52777 7.97282 7.42271 7.7509 7.30059C7.38716 7.10362 6.78838 6.91847 6.2605 6.80423L6.29595 6.63484H8.86575C9.19272 6.63484 9.48817 6.85282 9.56302 7.22968L10.1986 10.6084L11.7704 6.63484H13.3567H13.358ZM19.6137 10.5677C19.6203 9.02736 17.4838 8.94201 17.4983 8.25261C17.5035 8.04383 17.7018 7.82059 18.1391 7.76413C18.3558 7.73655 18.9519 7.71423 19.6282 8.02544L19.8934 6.78716C19.5297 6.65585 19.0622 6.52979 18.4805 6.52979C16.9875 6.52979 15.937 7.32292 15.9291 8.46009C15.9199 9.30049 16.6789 9.76928 17.2514 10.049C17.841 10.3352 18.038 10.5191 18.0353 10.7738C18.0314 11.1651 17.5652 11.3385 17.1319 11.345C16.3716 11.3569 15.9317 11.1402 15.5811 10.976L15.3067 12.2564C15.6599 12.4179 16.3112 12.5584 16.9862 12.5662C18.5737 12.5662 19.6111 11.7823 19.6164 10.569M23.5597 12.4756H24.9569L23.737 6.63746H22.4488C22.1586 6.63746 21.9143 6.80554 21.8053 7.06554L19.5389 12.4756H21.1251L21.4403 11.6037H23.3785L23.561 12.4756H23.5597ZM21.8736 10.4075L22.6694 8.21453L23.1264 10.4075H21.8736ZM15.5194 6.63746L14.2706 12.4756H12.7605L14.0093 6.63746H15.5194Z" fill="#1434CB"/>
<path d="M8.43122 21.2605C8.43122 21.0741 8.47587 20.9165 8.56647 20.7878C8.65708 20.6591 8.78051 20.5606 8.93677 20.495C9.09304 20.4293 9.269 20.3965 9.46597 20.3965C9.68526 20.3965 9.85991 20.4175 9.99122 20.4608C10.1212 20.5042 10.2223 20.5462 10.2919 20.5908L10.3274 21.0793H10.3156C10.2512 21.0255 10.1711 20.9769 10.0779 20.9362C9.98334 20.8955 9.88354 20.8613 9.77718 20.8377C9.67081 20.8127 9.56708 20.8009 9.46334 20.8009C9.30051 20.8009 9.1692 20.8272 9.06809 20.8797C8.96698 20.9322 8.91708 21.0255 8.91708 21.1568C8.91708 21.2579 8.94071 21.3367 8.9893 21.3932C9.03657 21.4496 9.10879 21.4969 9.20465 21.5323C9.30051 21.5678 9.41869 21.6059 9.56051 21.6453C9.69445 21.682 9.82051 21.7188 9.93869 21.7556C10.0556 21.7937 10.1593 21.8422 10.2473 21.9026C10.3353 21.9631 10.4035 22.0432 10.4548 22.1429C10.5047 22.2427 10.5309 22.3701 10.5309 22.5251C10.5309 22.8245 10.4337 23.0543 10.2381 23.2132C10.0424 23.372 9.77061 23.4508 9.41869 23.4508C9.24273 23.4508 9.06677 23.4272 8.88819 23.3786C8.7096 23.33 8.56516 23.267 8.45486 23.1869L8.42334 22.6945H8.43516C8.56384 22.8035 8.71879 22.8888 8.90001 22.9505C9.08122 23.0122 9.26243 23.0438 9.44627 23.0438C9.83627 23.0438 10.0306 22.9098 10.0306 22.6406C10.0306 22.5448 10.0083 22.4673 9.96496 22.4082C9.92162 22.3491 9.8494 22.2992 9.75223 22.2585C9.65374 22.2191 9.52637 22.1784 9.36879 22.1364C9.24536 22.1036 9.12718 22.0668 9.01688 22.0274C8.90526 21.988 8.80677 21.9381 8.71879 21.8764C8.63081 21.8147 8.56253 21.7346 8.51132 21.6361C8.46142 21.5376 8.43516 21.4128 8.43516 21.2605H8.43122Z" fill="white"/>
<path d="M10.9144 23.3957V20.4517H12.8119V20.8784H11.4331V21.665H12.5217V22.076H11.4331V22.9702H12.8119V23.397H10.9144V23.3957Z" fill="white"/>
<path d="M13.5984 21.9237C13.5984 22.1456 13.6391 22.3399 13.7205 22.5041C13.802 22.6695 13.9188 22.7969 14.0712 22.8875C14.2235 22.9781 14.4073 23.0227 14.6214 23.0227C14.8354 23.0227 15.0232 22.9899 15.1676 22.9243C15.3121 22.8586 15.4381 22.7719 15.5471 22.6669H15.5589L15.5051 23.1816C15.3909 23.2591 15.2569 23.3235 15.102 23.3734C14.947 23.4233 14.7658 23.4495 14.5596 23.4495C14.3272 23.4495 14.1184 23.4101 13.9346 23.3313C13.7494 23.2525 13.5919 23.1436 13.4619 23.0057C13.3319 22.8678 13.2321 22.705 13.1638 22.5198C13.0955 22.3334 13.0614 22.1351 13.0614 21.9237C13.0614 21.7122 13.0955 21.51 13.1638 21.3249C13.2321 21.1397 13.3319 20.9782 13.4619 20.8403C13.5919 20.7024 13.7494 20.5935 13.932 20.5147C14.1158 20.4359 14.322 20.3965 14.5518 20.3965C14.7579 20.3965 14.9365 20.4175 15.0862 20.4608C15.2359 20.5042 15.3633 20.5646 15.4696 20.6447L15.5235 21.1712H15.5117C15.4027 21.0649 15.2753 20.9808 15.1282 20.9178C14.9812 20.8548 14.8091 20.8233 14.6135 20.8233C14.3994 20.8233 14.2169 20.8679 14.0659 20.9585C13.9149 21.0491 13.7993 21.1765 13.7192 21.3419C13.6391 21.5074 13.5997 21.7004 13.5997 21.9223L13.5984 21.9237Z" fill="white"/>
<path d="M17.1976 23.0083C17.4642 23.0083 17.6572 22.9505 17.778 22.8363C17.8988 22.7208 17.9606 22.5264 17.9606 22.2493V20.4517H18.3939V22.2756C18.3939 22.6892 18.2902 22.9873 18.0814 23.1725C17.8739 23.3576 17.5706 23.4495 17.1727 23.4495C16.7748 23.4495 16.4702 23.3576 16.2509 23.1751C16.0316 22.9913 15.9213 22.6919 15.9213 22.2769V20.453H16.44V22.2388C16.44 22.5146 16.499 22.7129 16.6159 22.8311C16.7328 22.9492 16.9258 23.0096 17.195 23.0096L17.1976 23.0083Z" fill="white"/>
<path d="M18.9022 23.3957V20.4517H20.1458C20.3388 20.4517 20.5069 20.4897 20.6474 20.5672C20.7879 20.6447 20.8956 20.7511 20.9704 20.8863C21.0453 21.0216 21.0833 21.1752 21.0833 21.3459C21.0833 21.5468 21.0282 21.7228 20.9166 21.8725C20.805 22.0222 20.6539 22.122 20.4635 22.1706L21.2186 23.3944H20.6224L19.9409 22.2401H19.4222V23.3944H18.9035L18.9022 23.3957ZM20.0066 20.8627H19.4209V21.8541H20.0066C20.1943 21.8541 20.3309 21.8134 20.415 21.732C20.499 21.6505 20.541 21.5258 20.541 21.3577C20.541 21.1896 20.499 21.0649 20.415 20.9835C20.3309 20.9021 20.1943 20.8614 20.0066 20.8614V20.8627Z" fill="white"/>
<path d="M21.6059 23.3957V20.4517H23.5047V20.8784H22.1259V21.665H23.2145V22.076H22.1259V22.9702H23.5047V23.397H21.6059V23.3957Z" fill="white"/>
</svg>
